<svg width="34" height="21" viewBox="0 0 34 21" fill="none" xmlns="http://www.w3.org/2000/svg">
<path d="M4.41631 20.5498C3.68218 20.5514 2.96078 20.3581 2.32582 19.9896C1.69085 19.6212 1.16507 19.0907 0.802199 18.4526C0.444878 17.8189 0.266673 17.0999 0.286672 16.3727C0.306672 15.6455 0.524122 14.9374 0.915732 14.3243L8.35839 2.63663C8.73932 2.00848 9.28015 1.4927 9.92564 1.14197C10.5711 0.791243 11.2981 0.618132 12.0324 0.640322C12.7661 0.657905 13.482 0.870116 14.1068 1.25524C14.7316 1.64036 15.2428 2.18456 15.5882 2.83216C16.282 4.14411 16.1953 5.72255 15.3643 6.95408L7.92634 18.6418C7.54915 19.2296 7.0297 19.7126 6.41611 20.0461C5.80253 20.3797 5.11467 20.5529 4.41631 20.5498Z" fill="white"/>
<path d="M17.1822 20.5495C15.6811 20.5495 14.2998 19.7469 13.5744 18.457C13.2179 17.8251 13.0401 17.108 13.0601 16.3827C13.0801 15.6574 13.2972 14.9512 13.688 14.3398L21.1164 2.67894C21.4918 2.04196 22.0306 1.51699 22.6772 1.15848C23.3238 0.799969 24.0545 0.620972 24.7936 0.640052C26.3074 0.673167 27.6792 1.51994 28.373 2.84451C29.0621 4.16907 28.9612 5.75697 28.105 6.98535L20.6781 18.6462C20.302 19.2315 19.7847 19.7127 19.1737 20.0453C18.5628 20.3779 17.8779 20.5513 17.1822 20.5495Z" fill="white"/>
<path d="M29.6633 20.6472C31.7794 20.6472 33.495 18.9677 33.495 16.8959C33.495 14.8241 31.7794 13.1445 29.6633 13.1445C27.5471 13.1445 25.8315 14.8241 25.8315 16.8959C25.8315 18.9677 27.5471 20.6472 29.6633 20.6472Z" fill="white"/>
</svg>
