<svg width="41" height="42" viewBox="0 0 41 42" fill="none" xmlns="http://www.w3.org/2000/svg">
<path d="M8.65491 26.3481C8.65491 28.6924 6.76574 30.5871 4.42829 30.5871C2.09083 30.5871 0.20166 28.6924 0.20166 26.3481C0.20166 24.0038 2.09083 22.1091 4.42829 22.1091H8.65491V26.3481Z" fill="white"/>
<path d="M10.7681 26.3481C10.7681 24.0038 12.6572 22.1091 14.9947 22.1091C17.3321 22.1091 19.2213 24.0038 19.2213 26.3481V36.9455C19.2213 39.2898 17.3321 41.1845 14.9947 41.1845C12.6572 41.1845 10.7681 39.2898 10.7681 36.9455V26.3481Z" fill="white"/>
<path d="M14.9947 9.32804C12.6572 9.32804 10.7681 7.43335 10.7681 5.08907C10.7681 2.74479 12.6572 0.850098 14.9947 0.850098C17.3321 0.850098 19.2213 2.74479 19.2213 5.08907V9.32804H14.9947Z" fill="white"/>
<path d="M14.9946 11.4797C17.3321 11.4797 19.2213 13.3744 19.2213 15.7187C19.2213 18.063 17.3321 19.9577 14.9946 19.9577H4.39606C2.05861 19.9577 0.169434 18.063 0.169434 15.7187C0.169434 13.3744 2.05861 11.4797 4.39606 11.4797H14.9946Z" fill="white"/>
<path d="M31.9331 15.7187C31.9331 13.3744 33.8223 11.4797 36.1597 11.4797C38.4972 11.4797 40.3864 13.3744 40.3864 15.7187C40.3864 18.063 38.4972 19.9577 36.1597 19.9577H31.9331V15.7187Z" fill="white"/>
<path d="M29.82 15.7186C29.82 18.0629 27.9308 19.9576 25.5933 19.9576C23.2559 19.9576 21.3667 18.0629 21.3667 15.7186V5.08907C21.3667 2.74479 23.2559 0.850098 25.5933 0.850098C27.9308 0.850098 29.82 2.74479 29.82 5.08907V15.7186Z" fill="white"/>
<path d="M25.5933 32.7065C27.9308 32.7065 29.82 34.6012 29.82 36.9455C29.82 39.2898 27.9308 41.1845 25.5933 41.1845C23.2559 41.1845 21.3667 39.2898 21.3667 36.9455V32.7065H25.5933Z" fill="white"/>
<path d="M25.5933 30.5871C23.2559 30.5871 21.3667 28.6924 21.3667 26.3481C21.3667 24.0038 23.2559 22.1091 25.5933 22.1091H36.1919C38.5294 22.1091 40.4185 24.0038 40.4185 26.3481C40.4185 28.6924 38.5294 30.5871 36.1919 30.5871H25.5933Z" fill="white"/>
</svg>
